# xmcd
# 
# Track frame offsets:
#   150
#   16811
#   28908
#   45614
#   61500
#   74847
#   93478
#   110019
#   125511
#   140601
# 
# Disc length: 2037 seconds
# 
# Revision: 1
# Processed by: cddbd v1.4PL0 Copyright (c) Steve Scherf et al.
# Submitted via: VOLTOCDX V1.0.22 
# 
DISCID=8e07f30a
DTITLE=Beans Sousa - You Don't Know Beans
DYEAR=2002
DGENRE=country
TTITLE0=Reno And Me /w Lacy J. Dalton
TTITLE1=Fullmoon Saturday Night
TTITLE2=Northcoast
TTITLE3=This Old Town
TTITLE4=Blue Waltzing Fool
TTITLE5=Damn You Marie
TTITLE6=Tighter Tighter
TTITLE7=Hometown Blues
TTITLE8=Louisiana Eyes
TTITLE9=Mr. Lonely's Bar And Grill
EXTD=
EXTT0=
EXTT1=
EXTT2=
EXTT3=
EXTT4=
EXTT5=
EXTT6=
EXTT7=
EXTT8=
EXTT9=
PLAYORDER=
